<mxfile host="app.diagrams.net" agent="Mozilla/5.0 (Windows NT 10.0; Win64; x64) AppleWebKit/537.36 (KHTML, like Gecko) Chrome/136.0.0.0 Safari/537.36 Edg/136.0.0.0" version="27.1.0">
  <diagram name="Page-1" id="KyOE30FU2NO0qz574gP3">
    <mxGraphModel dx="778" dy="460" grid="1" gridSize="10" guides="1" tooltips="1" connect="1" arrows="1" fold="1" page="1" pageScale="1" pageWidth="850" pageHeight="1100" math="0" shadow="0">
      <root>
        <mxCell id="0" />
        <mxCell id="1" parent="0" />
        <mxCell id="6OO-Co6Ucispnphcz_oM-1" value="Game" style="swimlane;whiteSpace=wrap;html=1;" vertex="1" parent="1">
          <mxGeometry x="230" y="80" width="410" height="340" as="geometry" />
        </mxCell>
        <mxCell id="6OO-Co6Ucispnphcz_oM-5" value="Bắt đầu chơi" style="ellipse;whiteSpace=wrap;html=1;" vertex="1" parent="6OO-Co6Ucispnphcz_oM-1">
          <mxGeometry x="20" y="40" width="120" height="40" as="geometry" />
        </mxCell>
        <mxCell id="6OO-Co6Ucispnphcz_oM-6" value="Chơi theo lượt" style="ellipse;whiteSpace=wrap;html=1;" vertex="1" parent="6OO-Co6Ucispnphcz_oM-1">
          <mxGeometry x="145" y="75" width="120" height="40" as="geometry" />
        </mxCell>
        <mxCell id="6OO-Co6Ucispnphcz_oM-7" value="Kiểm tra chiến thắng" style="ellipse;whiteSpace=wrap;html=1;" vertex="1" parent="6OO-Co6Ucispnphcz_oM-1">
          <mxGeometry x="20" y="180" width="120" height="40" as="geometry" />
        </mxCell>
        <mxCell id="6OO-Co6Ucispnphcz_oM-8" value="Hiển thị bàn cờ" style="ellipse;whiteSpace=wrap;html=1;" vertex="1" parent="6OO-Co6Ucispnphcz_oM-1">
          <mxGeometry x="260" y="120" width="120" height="40" as="geometry" />
        </mxCell>
        <mxCell id="6OO-Co6Ucispnphcz_oM-9" value="Thông báo kết quả" style="ellipse;whiteSpace=wrap;html=1;" vertex="1" parent="6OO-Co6Ucispnphcz_oM-1">
          <mxGeometry x="20" y="260" width="120" height="40" as="geometry" />
        </mxCell>
        <mxCell id="6OO-Co6Ucispnphcz_oM-10" value="Chơi lại" style="ellipse;whiteSpace=wrap;html=1;" vertex="1" parent="6OO-Co6Ucispnphcz_oM-1">
          <mxGeometry x="250" y="260" width="120" height="40" as="geometry" />
        </mxCell>
        <mxCell id="6OO-Co6Ucispnphcz_oM-11" value="Thoát game" style="ellipse;whiteSpace=wrap;html=1;" vertex="1" parent="6OO-Co6Ucispnphcz_oM-1">
          <mxGeometry x="240" y="180" width="120" height="40" as="geometry" />
        </mxCell>
        <mxCell id="6OO-Co6Ucispnphcz_oM-15" value="" style="endArrow=open;html=1;rounded=0;exitX=1;exitY=1;exitDx=0;exitDy=0;entryX=0;entryY=0;entryDx=0;entryDy=0;endFill=0;dashed=1;" edge="1" parent="6OO-Co6Ucispnphcz_oM-1" source="6OO-Co6Ucispnphcz_oM-6" target="6OO-Co6Ucispnphcz_oM-8">
          <mxGeometry width="50" height="50" relative="1" as="geometry">
            <mxPoint x="190" y="130" as="sourcePoint" />
            <mxPoint x="260" y="100" as="targetPoint" />
          </mxGeometry>
        </mxCell>
        <mxCell id="6OO-Co6Ucispnphcz_oM-16" value="&amp;lt;&amp;lt;include&amp;gt;&amp;gt;" style="text;html=1;align=center;verticalAlign=middle;whiteSpace=wrap;rounded=0;" vertex="1" parent="6OO-Co6Ucispnphcz_oM-1">
          <mxGeometry x="280" y="95" width="60" height="30" as="geometry" />
        </mxCell>
        <mxCell id="6OO-Co6Ucispnphcz_oM-17" value="" style="endArrow=none;html=1;rounded=0;entryX=0;entryY=0.5;entryDx=0;entryDy=0;" edge="1" parent="6OO-Co6Ucispnphcz_oM-1" target="6OO-Co6Ucispnphcz_oM-11">
          <mxGeometry width="50" height="50" relative="1" as="geometry">
            <mxPoint x="-50" y="130" as="sourcePoint" />
            <mxPoint x="60" y="130" as="targetPoint" />
          </mxGeometry>
        </mxCell>
        <mxCell id="6OO-Co6Ucispnphcz_oM-18" value="" style="endArrow=open;html=1;rounded=0;exitX=0;exitY=1;exitDx=0;exitDy=0;entryX=0.5;entryY=0;entryDx=0;entryDy=0;endFill=0;dashed=1;" edge="1" parent="6OO-Co6Ucispnphcz_oM-1" source="6OO-Co6Ucispnphcz_oM-6" target="6OO-Co6Ucispnphcz_oM-7">
          <mxGeometry width="50" height="50" relative="1" as="geometry">
            <mxPoint x="138" y="140" as="sourcePoint" />
            <mxPoint x="90" y="176" as="targetPoint" />
          </mxGeometry>
        </mxCell>
        <mxCell id="6OO-Co6Ucispnphcz_oM-19" value="&amp;lt;&amp;lt;include&amp;gt;&amp;gt;" style="text;html=1;align=center;verticalAlign=middle;whiteSpace=wrap;rounded=0;" vertex="1" parent="6OO-Co6Ucispnphcz_oM-1">
          <mxGeometry x="70" y="125" width="60" height="30" as="geometry" />
        </mxCell>
        <mxCell id="6OO-Co6Ucispnphcz_oM-20" value="" style="endArrow=open;html=1;rounded=0;exitX=1;exitY=0.5;exitDx=0;exitDy=0;entryX=0;entryY=0.5;entryDx=0;entryDy=0;endFill=0;dashed=1;" edge="1" parent="6OO-Co6Ucispnphcz_oM-1" source="6OO-Co6Ucispnphcz_oM-9" target="6OO-Co6Ucispnphcz_oM-10">
          <mxGeometry width="50" height="50" relative="1" as="geometry">
            <mxPoint x="180" y="290" as="sourcePoint" />
            <mxPoint x="211" y="307" as="targetPoint" />
          </mxGeometry>
        </mxCell>
        <mxCell id="6OO-Co6Ucispnphcz_oM-21" value="&amp;lt;&amp;lt;extend&amp;gt;&amp;gt;" style="text;html=1;align=center;verticalAlign=middle;whiteSpace=wrap;rounded=0;" vertex="1" parent="6OO-Co6Ucispnphcz_oM-1">
          <mxGeometry x="145" y="250" width="60" height="30" as="geometry" />
        </mxCell>
        <mxCell id="6OO-Co6Ucispnphcz_oM-2" value="Người chơi" style="shape=umlActor;verticalLabelPosition=bottom;verticalAlign=top;html=1;outlineConnect=0;" vertex="1" parent="1">
          <mxGeometry x="130" y="170" width="30" height="60" as="geometry" />
        </mxCell>
        <mxCell id="6OO-Co6Ucispnphcz_oM-12" value="" style="endArrow=none;html=1;rounded=0;entryX=0;entryY=0.5;entryDx=0;entryDy=0;" edge="1" parent="1" target="6OO-Co6Ucispnphcz_oM-5">
          <mxGeometry width="50" height="50" relative="1" as="geometry">
            <mxPoint x="180" y="210" as="sourcePoint" />
            <mxPoint x="230" y="160" as="targetPoint" />
          </mxGeometry>
        </mxCell>
        <mxCell id="6OO-Co6Ucispnphcz_oM-14" value="" style="endArrow=none;html=1;rounded=0;entryX=0;entryY=0.5;entryDx=0;entryDy=0;" edge="1" parent="1" target="6OO-Co6Ucispnphcz_oM-6">
          <mxGeometry width="50" height="50" relative="1" as="geometry">
            <mxPoint x="180" y="210" as="sourcePoint" />
            <mxPoint x="410" y="210" as="targetPoint" />
          </mxGeometry>
        </mxCell>
      </root>
    </mxGraphModel>
  </diagram>
</mxfile>
